<svg xmlns="http://www.w3.org/2000/svg" style="display:none" aria-hidden="true">
  <symbol id="i-home" viewBox="0 0 24 24"><path d="M3 11 12 3l9 8v9a1 1 0 0 1-1 1h-5v-6h-6v6H4a1 1 0 0 1-1-1z" fill="none" stroke="currentColor" stroke-width="1.6" stroke-linejoin="round"/></symbol>
  <symbol id="i-create" viewBox="0 0 24 24"><circle cx="12" cy="12" r="9" fill="none" stroke="currentColor" stroke-width="1.6"/><path d="M12 8v8M8 12h8" fill="none" stroke="currentColor" stroke-width="1.8" stroke-linecap="round"/></symbol>
  <symbol id="i-download" viewBox="0 0 24 24"><path d="M12 3v12m0 0 4-4m-4 4-4-4M4 17v3a1 1 0 0 0 1 1h14a1 1 0 0 0 1-1v-3" fill="none" stroke="currentColor" stroke-width="1.6" stroke-linecap="round" stroke-linejoin="round"/></symbol>
  <symbol id="i-upload" viewBox="0 0 24 24"><path d="M12 17V5m0 0 4 4m-4-4-4 4M4 17v3a1 1 0 0 0 1 1h14a1 1 0 0 0 1-1v-3" fill="none" stroke="currentColor" stroke-width="1.6" stroke-linecap="round" stroke-linejoin="round"/></symbol>
  <symbol id="i-music" viewBox="0 0 24 24"><path d="M9 18V6l11-2v12" fill="none" stroke="currentColor" stroke-width="1.6" stroke-linejoin="round"/><circle cx="6.5" cy="18" r="2.5" fill="currentColor"/><circle cx="17.5" cy="16" r="2.5" fill="currentColor"/></symbol>
  <symbol id="i-waveform" viewBox="0 0 24 24"><path d="M2 12h2m4 0h1m3-6v12M16 9v6m4-3h2M5 9v6m3-2v-2" fill="none" stroke="currentColor" stroke-width="1.8" stroke-linecap="round"/></symbol>
  <symbol id="i-plugin" viewBox="0 0 24 24"><path d="M9 3v3H6a1 1 0 0 0-1 1v4h3a2 2 0 1 1 0 4H5v4a1 1 0 0 0 1 1h4v-3a2 2 0 1 1 4 0v3h4a1 1 0 0 0 1-1v-4h-3a2 2 0 1 1 0-4h3V7a1 1 0 0 0-1-1h-4V3z" fill="none" stroke="currentColor" stroke-width="1.5" stroke-linejoin="round"/></symbol>
  <symbol id="i-skin" viewBox="0 0 24 24"><path d="M12 3a9 9 0 1 0 0 18c1 0 1.5-.7 1.5-1.5 0-.7-.5-1.2-.5-1.7 0-.7.6-1.3 1.3-1.3H17a4 4 0 0 0 4-4 8 8 0 0 0-9-9z" fill="none" stroke="currentColor" stroke-width="1.5"/><circle cx="7.5" cy="11" r="1.2" fill="currentColor"/><circle cx="11" cy="7.5" r="1.2" fill="currentColor"/><circle cx="15.5" cy="8.5" r="1.2" fill="currentColor"/><circle cx="17.5" cy="13" r="1.2" fill="currentColor"/></symbol>
  <symbol id="i-settings" viewBox="0 0 24 24"><path d="M12 9a3 3 0 1 1 0 6 3 3 0 0 1 0-6zM4.6 14a8 8 0 0 1 0-4l-1.5-1L4 6l1.7.6a8 8 0 0 1 3.5-2L9.5 3h5l.3 1.6a8 8 0 0 1 3.5 2L20 6l1 3-1.5 1a8 8 0 0 1 0 4l1.5 1-1 3-1.7-.6a8 8 0 0 1-3.5 2l-.3 1.6h-5l-.3-1.6a8 8 0 0 1-3.5-2L4 18l-1-3z" fill="none" stroke="currentColor" stroke-width="1.4" stroke-linejoin="round"/></symbol>
  <symbol id="i-play" viewBox="0 0 24 24"><path d="M7 5v14l12-7z" fill="currentColor"/></symbol>
  <symbol id="i-pause" viewBox="0 0 24 24"><rect x="6" y="5" width="4" height="14" rx="1" fill="currentColor"/><rect x="14" y="5" width="4" height="14" rx="1" fill="currentColor"/></symbol>
  <symbol id="i-stop" viewBox="0 0 24 24"><rect x="6" y="6" width="12" height="12" rx="1.5" fill="currentColor"/></symbol>
  <symbol id="i-volume" viewBox="0 0 24 24"><path d="M4 10v4h4l5 4V6l-5 4zM16 9a4 4 0 0 1 0 6m2.5-8.5a8 8 0 0 1 0 11" fill="none" stroke="currentColor" stroke-width="1.6" stroke-linecap="round" stroke-linejoin="round"/></symbol>
  <symbol id="i-volume-muted" viewBox="0 0 24 24"><path d="M4 10v4h4l5 4V6l-5 4zM17 10l4 4m0-4-4 4" fill="none" stroke="currentColor" stroke-width="1.6" stroke-linecap="round" stroke-linejoin="round"/></symbol>
  <symbol id="i-mail" viewBox="0 0 24 24"><rect x="3" y="5" width="18" height="14" rx="1.5" fill="none" stroke="currentColor" stroke-width="1.6"/><path d="m4 7 8 6 8-6" fill="none" stroke="currentColor" stroke-width="1.6" stroke-linejoin="round"/></symbol>
  <symbol id="i-github" viewBox="0 0 24 24"><path d="M12 2a10 10 0 0 0-3.16 19.49c.5.09.68-.22.68-.48v-1.7c-2.78.6-3.37-1.34-3.37-1.34-.46-1.16-1.12-1.47-1.12-1.47-.91-.62.07-.61.07-.61 1.01.07 1.54 1.04 1.54 1.04.9 1.53 2.36 1.09 2.93.83.09-.65.35-1.09.63-1.34-2.22-.25-4.55-1.11-4.55-4.94 0-1.09.39-1.98 1.03-2.68-.1-.25-.45-1.27.1-2.65 0 0 .84-.27 2.75 1.02a9.5 9.5 0 0 1 5 0c1.91-1.29 2.75-1.02 2.75-1.02.55 1.38.2 2.4.1 2.65.64.7 1.03 1.59 1.03 2.68 0 3.84-2.34 4.69-4.57 4.93.36.31.68.92.68 1.85v2.74c0 .27.18.58.69.48A10 10 0 0 0 12 2z" fill="currentColor"/></symbol>
  <symbol id="i-search" viewBox="0 0 24 24"><circle cx="11" cy="11" r="6" fill="none" stroke="currentColor" stroke-width="1.6"/><path d="m20 20-4.3-4.3" stroke="currentColor" stroke-width="1.6" stroke-linecap="round"/></symbol>
  <symbol id="i-chevron-left" viewBox="0 0 24 24"><path d="m15 5-7 7 7 7" fill="none" stroke="currentColor" stroke-width="1.8" stroke-linecap="round" stroke-linejoin="round"/></symbol>
  <symbol id="i-chevron-right" viewBox="0 0 24 24"><path d="m9 5 7 7-7 7" fill="none" stroke="currentColor" stroke-width="1.8" stroke-linecap="round" stroke-linejoin="round"/></symbol>
  <symbol id="i-chevron-up" viewBox="0 0 24 24"><path d="m5 15 7-7 7 7" fill="none" stroke="currentColor" stroke-width="1.8" stroke-linecap="round" stroke-linejoin="round"/></symbol>
  <symbol id="i-chevron-down" viewBox="0 0 24 24"><path d="m5 9 7 7 7-7" fill="none" stroke="currentColor" stroke-width="1.8" stroke-linecap="round" stroke-linejoin="round"/></symbol>
  <symbol id="i-check" viewBox="0 0 24 24"><path d="m4 12 5 5L20 6" fill="none" stroke="currentColor" stroke-width="2" stroke-linecap="round" stroke-linejoin="round"/></symbol>
  <symbol id="i-close" viewBox="0 0 24 24"><path d="M6 6l12 12M18 6 6 18" fill="none" stroke="currentColor" stroke-width="1.8" stroke-linecap="round"/></symbol>
  <symbol id="i-minimize" viewBox="0 0 24 24"><path d="M6 12h12" fill="none" stroke="currentColor" stroke-width="1.6" stroke-linecap="round"/></symbol>
  <symbol id="i-maximize" viewBox="0 0 24 24"><rect x="6" y="6" width="12" height="12" rx=".5" fill="none" stroke="currentColor" stroke-width="1.5"/></symbol>
  <symbol id="i-restore" viewBox="0 0 24 24"><path d="M9 8V6h9v9h-2M6 9h9v9H6z" fill="none" stroke="currentColor" stroke-width="1.5" stroke-linejoin="round"/></symbol>
  <symbol id="i-refresh" viewBox="0 0 24 24"><path d="M20 7v5h-5M4 17v-5h5m10.1-3A8 8 0 0 0 6 6l-2 2m16 8-2 2A8 8 0 0 1 4.9 15" fill="none" stroke="currentColor" stroke-width="1.6" stroke-linecap="round" stroke-linejoin="round"/></symbol>
  <symbol id="i-history" viewBox="0 0 24 24"><path d="M4 7v5h5M5.2 16a8 8 0 1 0 .2-8.3L4 9m8-2v5l3 2" fill="none" stroke="currentColor" stroke-width="1.6" stroke-linecap="round" stroke-linejoin="round"/></symbol>
  <symbol id="i-star" viewBox="0 0 24 24"><path d="m12 3 2.8 5.7 6.2.9-4.5 4.4 1.1 6.2-5.6-2.9-5.6 2.9 1.1-6.2L3 9.6l6.2-.9z" fill="none" stroke="currentColor" stroke-width="1.5" stroke-linejoin="round"/></symbol>
  <symbol id="i-star-filled" viewBox="0 0 24 24"><path d="m12 3 2.8 5.7 6.2.9-4.5 4.4 1.1 6.2-5.6-2.9-5.6 2.9 1.1-6.2L3 9.6l6.2-.9z" fill="currentColor"/></symbol>
  <symbol id="i-thumb-up" viewBox="0 0 24 24"><path d="M8 21v-9l3.5-7a1.5 1.5 0 0 1 2.8 1l-1 4H19a2 2 0 0 1 2 2.4l-1.4 6.5A2.6 2.6 0 0 1 17 21zM3 12h5v9H3z" fill="none" stroke="currentColor" stroke-width="1.5" stroke-linejoin="round"/></symbol>
  <symbol id="i-thumb-down" viewBox="0 0 24 24"><path d="M16 3v9l-3.5 7a1.5 1.5 0 0 1-2.8-1l1-4H5a2 2 0 0 1-2-2.4l1.4-6.5A2.6 2.6 0 0 1 7 3zM16 3h5v9h-5z" fill="none" stroke="currentColor" stroke-width="1.5" stroke-linejoin="round"/></symbol>
  <symbol id="i-remix" viewBox="0 0 24 24"><path d="M4 7h11a4 4 0 0 1 4 4v1m-3-8 3 3-3 3M20 17H9a4 4 0 0 1-4-4v-1m3 8-3-3 3-3" fill="none" stroke="currentColor" stroke-width="1.6" stroke-linecap="round" stroke-linejoin="round"/></symbol>
  <symbol id="i-eye" viewBox="0 0 24 24"><path d="M3 12s3.3-6 9-6 9 6 9 6-3.3 6-9 6-9-6-9-6z" fill="none" stroke="currentColor" stroke-width="1.5" stroke-linejoin="round"/><circle cx="12" cy="12" r="2.5" fill="none" stroke="currentColor" stroke-width="1.5"/></symbol>
  <symbol id="i-trash" viewBox="0 0 24 24"><path d="M5 7h14M9 7V4h6v3m2 0-1 14H8L7 7m3 4v6m4-6v6" fill="none" stroke="currentColor" stroke-width="1.5" stroke-linecap="round" stroke-linejoin="round"/></symbol>
  <symbol id="i-edit" viewBox="0 0 24 24"><path d="m14.5 5.5 4 4M4 20l1-5L16.5 3.5a1.4 1.4 0 0 1 2 0l2 2a1.4 1.4 0 0 1 0 2L9 19z" fill="none" stroke="currentColor" stroke-width="1.5" stroke-linecap="round" stroke-linejoin="round"/></symbol>
  <symbol id="i-copy" viewBox="0 0 24 24"><rect x="8" y="8" width="12" height="12" rx="1.5" fill="none" stroke="currentColor" stroke-width="1.5"/><path d="M16 8V5.5A1.5 1.5 0 0 0 14.5 4h-10A1.5 1.5 0 0 0 3 5.5v10A1.5 1.5 0 0 0 4.5 17H8" fill="none" stroke="currentColor" stroke-width="1.5"/></symbol>
  <symbol id="i-folder" viewBox="0 0 24 24"><path d="M3 6h7l2 2h9v11a2 2 0 0 1-2 2H5a2 2 0 0 1-2-2z" fill="none" stroke="currentColor" stroke-width="1.5" stroke-linejoin="round"/></symbol>
  <symbol id="i-flame" viewBox="0 0 24 24"><path d="M12 3c1.5 3 4 4 4 8a4 4 0 0 1-8 0c0-1.5.5-2.5 1-3-.5 2 .5 3 1.5 3 1 0 1.5-.8 1.5-2 0-2-2-3 0-6z" fill="none" stroke="currentColor" stroke-width="1.5" stroke-linejoin="round"/><path d="M6 16a6 6 0 0 0 12 0" fill="none" stroke="currentColor" stroke-width="1.5"/></symbol>
  <symbol id="i-book" viewBox="0 0 24 24"><path d="M4 4h6a3 3 0 0 1 3 3v13a2 2 0 0 0-2-2H4z M20 4h-6a3 3 0 0 0-3 3v13a2 2 0 0 1 2-2h7z" fill="none" stroke="currentColor" stroke-width="1.5" stroke-linejoin="round"/></symbol>
  <symbol id="i-map" viewBox="0 0 24 24"><path d="M9 4 3 6v14l6-2 6 2 6-2V4l-6 2zM9 4v14m6-12v14" fill="none" stroke="currentColor" stroke-width="1.5" stroke-linejoin="round"/></symbol>
  <symbol id="i-info" viewBox="0 0 24 24"><circle cx="12" cy="12" r="9" fill="none" stroke="currentColor" stroke-width="1.6"/><circle cx="12" cy="8" r="1.2" fill="currentColor"/><path d="M12 11v6" stroke="currentColor" stroke-width="1.8" stroke-linecap="round"/></symbol>
  <symbol id="i-dot" viewBox="0 0 24 24"><circle cx="12" cy="12" r="3" fill="currentColor"/></symbol>
  <symbol id="i-grid" viewBox="0 0 24 24"><rect x="3" y="3" width="7" height="7" rx="1" fill="none" stroke="currentColor" stroke-width="1.6"/><rect x="14" y="3" width="7" height="7" rx="1" fill="none" stroke="currentColor" stroke-width="1.6"/><rect x="3" y="14" width="7" height="7" rx="1" fill="none" stroke="currentColor" stroke-width="1.6"/><rect x="14" y="14" width="7" height="7" rx="1" fill="none" stroke="currentColor" stroke-width="1.6"/></symbol>
  <symbol id="i-shield" viewBox="0 0 24 24"><path d="M12 3 4 6v6c0 5 3.5 8 8 9 4.5-1 8-4 8-9V6z" fill="none" stroke="currentColor" stroke-width="1.5" stroke-linejoin="round"/></symbol>
  <symbol id="i-cube" viewBox="0 0 24 24"><path d="M12 3 3 8v8l9 5 9-5V8z M3 8l9 5 9-5 M12 13v8" fill="none" stroke="currentColor" stroke-width="1.5" stroke-linejoin="round"/></symbol>
  <symbol id="i-lens" viewBox="0 0 24 24"><circle cx="9" cy="12" r="6" fill="currentColor" opacity="0.55"/><circle cx="15" cy="12" r="6" fill="currentColor" opacity="0.55"/></symbol>
  <symbol id="i-stems" viewBox="0 0 24 24"><path d="M3 5h8m-8 5h13M3 15h6m-6 5h15" fill="none" stroke="currentColor" stroke-width="1.8" stroke-linecap="round"/><path d="M15 3.5v3m4-4.5v6m-4 5.5v3m4-5v7" fill="none" stroke="currentColor" stroke-width="1.5" stroke-linecap="round"/></symbol>
  <symbol id="i-mic" viewBox="0 0 24 24"><rect x="9" y="3" width="6" height="11" rx="3" fill="none" stroke="currentColor" stroke-width="1.6"/><path d="M6 11a6 6 0 0 0 12 0M12 17v4m-3 0h6" fill="none" stroke="currentColor" stroke-width="1.6" stroke-linecap="round"/></symbol>
  <symbol id="i-drum" viewBox="0 0 24 24"><ellipse cx="12" cy="9" rx="8" ry="3" fill="none" stroke="currentColor" stroke-width="1.6"/><path d="M4 9v7c0 1.7 3.6 3 8 3s8-1.3 8-3V9M8 11.6v6.8m8-6.8v6.8M15 3l-3 4m-3-4 3 4" fill="none" stroke="currentColor" stroke-width="1.5" stroke-linecap="round"/></symbol>
  <symbol id="i-bass" viewBox="0 0 24 24"><path d="M3 12c1.5-5 3-5 4.5 0s3 5 4.5 0 3-5 4.5 0 3 5 4.5 0" fill="none" stroke="currentColor" stroke-width="1.8" stroke-linecap="round"/><path d="M3 20h18" stroke="currentColor" stroke-width="1.4" stroke-linecap="round" opacity="0.6"/></symbol>
  <symbol id="i-guitar" viewBox="0 0 24 24"><path d="m14 10 6-6m-2-1 3 3M10.5 9.5c-1.5-1.5-4-1.2-5.2.4-.8 1-.6 2.2-1.6 3.1-1.3 1.2-1.1 3.6.6 5.3s4.1 1.9 5.3.6c.9-1 2.1-.8 3.1-1.6 1.6-1.2 1.9-3.7.4-5.2z" fill="none" stroke="currentColor" stroke-width="1.5" stroke-linejoin="round" stroke-linecap="round"/><circle cx="9.5" cy="14.5" r="1.3" fill="currentColor"/></symbol>
  <symbol id="i-piano" viewBox="0 0 24 24"><rect x="3" y="5" width="18" height="14" rx="1.5" fill="none" stroke="currentColor" stroke-width="1.5"/><path d="M8 19v-5m4 5v-5m4 5v-5" stroke="currentColor" stroke-width="1.4"/><path d="M6.5 5h3v9h-3zm4 0h3v9h-3zm4 0h3v9h-3z" fill="currentColor"/></symbol>
  <symbol id="i-layers" viewBox="0 0 24 24"><path d="m12 3 9 5-9 5-9-5z" fill="none" stroke="currentColor" stroke-width="1.5" stroke-linejoin="round"/><path d="m3 12 9 5 9-5M3 16l9 5 9-5" fill="none" stroke="currentColor" stroke-width="1.5" stroke-linejoin="round"/></symbol>
  <symbol id="i-headphones" viewBox="0 0 24 24"><path d="M4 15v-3a8 8 0 0 1 16 0v3" fill="none" stroke="currentColor" stroke-width="1.6"/><rect x="3" y="14" width="4" height="7" rx="1.5" fill="none" stroke="currentColor" stroke-width="1.6"/><rect x="17" y="14" width="4" height="7" rx="1.5" fill="none" stroke="currentColor" stroke-width="1.6"/></symbol>
  <symbol id="i-metronome" viewBox="0 0 24 24"><path d="M9 3h6l4 18H5z" fill="none" stroke="currentColor" stroke-width="1.5" stroke-linejoin="round"/><path d="M7 16h10M12 16l5-9" stroke="currentColor" stroke-width="1.6" stroke-linecap="round"/><circle cx="16" cy="9" r="1.3" fill="currentColor"/></symbol>
  <symbol id="i-key" viewBox="0 0 24 24"><path d="M9 4v11.5" stroke="currentColor" stroke-width="1.6" stroke-linecap="round"/><circle cx="6.5" cy="16.5" r="2.5" fill="currentColor"/><path d="M9 4c3 1 5 2 5 5" fill="none" stroke="currentColor" stroke-width="1.6" stroke-linecap="round"/><path d="M16 12v5m0-5h3m-3 2.5h2.5M16 17h3" fill="none" stroke="currentColor" stroke-width="1.5" stroke-linecap="round"/></symbol>
</svg>
